<?xml version="1.0" encoding="UTF-8"?>
<svg width="532px" height="68px" viewBox="0 0 532 68" version="1.1" xmlns="http://www.w3.org/2000/svg" xmlns:xlink="http://www.w3.org/1999/xlink">
    <title>lockup_Google_Workspace_624x96px_clr</title>
    <g id="Google-Workspace" stroke="none" stroke-width="1" fill="none" fill-rule="evenodd">
        <g id="Gsuite-landing-page" transform="translate(-451.000000, -3401.000000)" fill-rule="nonzero">
            <g id="lockup_Google_Workspace_624x96px_clr" transform="translate(451.000000, 3401.000000)">
                <g id="Group" transform="translate(224.000000, 5.000000)" fill="#5F6368">
                    <polygon id="Path" points="52.5662818 0.104651163 58.8472055 0.104651163 46.3493764 46.0604651 40.1964896 46.0604651 30.1171363 15.7674419 29.8539492 15.7674419 19.7745958 46.0604651 13.621709 46.0604651 0.604618938 0.104651163 6.88554273 0.104651163 16.7657275 36.244186 17.0289145 36.244186 27.1722864 6.27209302 32.7987991 6.27209302 42.9421709 36.244186 43.205358 36.244186"></polygon>
                    <path d="M58.2781524,30.3348837 C58.2781524,25.5 59.8288222,21.5023256 62.9230485,18.3348837 C66.067067,15.1674419 70.014873,13.5837209 74.7664665,13.5837209 C79.51806,13.5837209 83.4516397,15.1674419 86.5458661,18.3348837 C89.6898845,21.5023256 91.2547806,25.5 91.2547806,30.3348837 C91.2547806,35.2116279 89.6827714,39.2162791 86.5458661,42.3348837 C83.4445266,45.5023256 79.51806,47.0860465 74.7664665,47.0860465 C70.0077598,47.0860465 66.0599538,45.5023256 62.9230485,42.3348837 C59.8288222,39.1744186 58.2781524,35.1697674 58.2781524,30.3348837 Z M64.2958891,30.3348837 C64.2958891,33.7186047 65.2988453,36.4534884 67.3047575,38.5534884 C69.3106697,40.6534884 71.8002771,41.7 74.7664665,41.7 C77.7326559,41.7 80.2222633,40.6534884 82.2281755,38.5534884 C84.2340878,36.4604651 85.2370439,33.7186047 85.2370439,30.3348837 C85.2370439,27 84.2340878,24.2790698 82.2281755,22.1860465 C80.1795843,20.044186 77.6899769,18.9767442 74.7664665,18.9767442 C71.8429561,18.9767442 69.3533487,20.044186 67.3047575,22.1860465 C65.2988453,24.2790698 64.2958891,27 64.2958891,30.3348837 Z" id="Shape"></path>
                    <path d="M101.554642,46.0604651 L95.5369053,46.0604651 L95.5369053,14.6093023 L101.298568,14.6093023 L101.298568,19.744186 L101.561755,19.744186 C102.173487,18.0767442 103.425404,16.6534884 105.324619,15.4744186 C107.223834,14.2953488 109.087483,13.7093023 110.922679,13.7093023 C112.665404,13.7093023 114.152055,13.9674419 115.37552,14.4767442 L113.540323,20.1906977 C112.800554,19.8906977 111.619769,19.744186 110.005081,19.744186 C107.735982,19.744186 105.758522,20.644186 104.079815,22.4372093 C102.401109,24.2372093 101.561755,26.3302326 101.561755,28.7302326 L101.561755,46.0604651 L101.554642,46.0604651 Z" id="Path"></path>
                    <polygon id="Path" points="146.353349 46.0604651 139.090808 46.0604651 129.075473 31.2348837 124.16739 35.9860465 124.16739 46.0604651 118.149654 46.0604651 118.149654 0.104651163 124.16739 0.104651163 124.16739 28.4093023 138.03806 14.6093023 145.762956 14.6093023 145.762956 14.8674419 133.265127 27.0627907 146.353349 45.8023256"></polygon>
                    <path d="M172.408868,37.3325581 C172.408868,40.0744186 171.185404,42.3837209 168.745589,44.2674419 C166.298661,46.1511628 163.225774,47.0930233 159.519815,47.0930233 C156.290439,47.0930233 153.452286,46.2697674 151.012471,44.6232558 C148.565543,42.9767442 146.822818,40.8069767 145.777182,38.1069767 L151.140508,35.8604651 C151.922956,37.744186 153.068176,39.2093023 154.576166,40.255814 C156.084157,41.3023256 157.727298,41.8255814 159.519815,41.8255814 C161.44037,41.8255814 163.040831,41.4209302 164.328314,40.6046512 C165.615797,39.7953488 166.255982,38.8325581 166.255982,37.7162791 C166.255982,35.7069767 164.683972,34.227907 161.547067,33.2860465 L156.048591,31.9395349 C149.810346,30.3976744 146.687667,27.4465116 146.687667,23.0790698 C146.687667,20.2116279 147.875566,17.9093023 150.251363,16.1790698 C152.627159,14.4488372 155.671594,13.5767442 159.377552,13.5767442 C162.215704,13.5767442 164.776443,14.2395349 167.066882,15.5651163 C169.357321,16.8906977 170.957783,18.6697674 171.875381,20.8953488 L166.512055,23.0790698 C165.900323,21.7534884 164.911594,20.7139535 163.53164,19.9674419 C162.158799,19.2209302 160.622356,18.844186 158.915196,18.844186 C157.343187,18.844186 155.934781,19.227907 154.69709,20.0023256 C153.4594,20.7767442 152.833441,21.7116279 152.833441,22.827907 C152.833441,24.627907 154.554827,25.9116279 158.004711,26.6790698 L162.848776,27.9 C169.222171,29.4348837 172.408868,32.5813953 172.408868,37.3325581 Z" id="Path"></path>
                    <path d="M193.314457,47.0860465 C190.96,47.0860465 188.811824,46.5906977 186.869931,45.6069767 C184.928037,44.6232558 183.434273,43.3186047 182.388637,41.6930233 L182.12545,41.6930233 L182.388637,46.0604651 L182.388637,59.9232558 L176.370901,59.9232558 L176.370901,14.6093023 L182.132564,14.6093023 L182.132564,18.9767442 L182.395751,18.9767442 C183.441386,17.3511628 184.93515,16.0465116 186.877044,15.0627907 C188.818938,14.0790698 190.967113,13.5837209 193.32157,13.5837209 C197.553903,13.5837209 201.131824,15.2093023 204.055335,18.4604651 C207.064203,21.7534884 208.572194,25.7162791 208.572194,30.3348837 C208.572194,35.0023256 207.064203,38.9581395 204.055335,42.2093023 C201.124711,45.4604651 197.54679,47.0860465 193.314457,47.0860465 Z M192.332841,41.7 C195.213672,41.7 197.632148,40.6325581 199.595381,38.4906977 C201.558614,36.3976744 202.540231,33.6767442 202.540231,30.3418605 C202.540231,27.0488372 201.558614,24.327907 199.595381,22.1930233 C197.632148,20.0511628 195.213672,18.9837209 192.332841,18.9837209 C189.40933,18.9837209 186.969515,20.0511628 185.006282,22.1930233 C183.085727,24.3348837 182.12545,27.0488372 182.12545,30.3418605 C182.12545,33.6767442 183.085727,36.4186047 185.006282,38.5604651 C186.962402,40.6465116 189.40933,41.7 192.332841,41.7 Z" id="Shape"></path>
                    <path d="M225.053395,13.5837209 C229.506236,13.5837209 233.013025,14.7488372 235.587991,17.0790698 C238.162956,19.4093023 239.450439,22.6116279 239.450439,26.672093 L239.450439,46.0534884 L233.688776,46.0534884 L233.688776,41.6860465 L233.425589,41.6860465 C230.935982,45.2790698 227.621247,47.0790698 223.481386,47.0790698 C219.946143,47.0790698 216.99418,46.0534884 214.61127,43.9953488 C212.235473,41.944186 211.047575,39.3767442 211.047575,36.2930233 C211.047575,33.0418605 212.299492,30.4534884 214.810439,28.527907 C217.321386,26.6023256 220.664573,25.6395349 224.854226,25.6395349 C228.432148,25.6395349 231.376998,26.2813953 233.688776,27.5651163 L233.688776,26.2186047 C233.688776,24.1674419 232.856536,22.4232558 231.199169,20.9860465 C229.541801,19.555814 227.599908,18.8372093 225.373487,18.8372093 C222.016074,18.8372093 219.355751,20.2255814 217.392517,23.0093023 L212.09321,19.7372093 C215.016721,15.6348837 219.334411,13.5837209 225.053395,13.5837209 Z M217.26448,36.4325581 C217.26448,37.9744186 217.926005,39.2581395 219.263279,40.2837209 C220.593441,41.3093023 222.151224,41.8255814 223.943741,41.8255814 C226.476028,41.8255814 228.730901,40.9046512 230.715473,39.0627907 C232.700046,37.2209302 233.695889,35.0651163 233.695889,32.5813953 C231.818014,31.1302326 229.20037,30.3976744 225.842956,30.3976744 C223.396028,30.3976744 221.361663,30.9767442 219.725635,32.127907 C218.082494,33.2860465 217.26448,34.7232558 217.26448,36.4325581 Z" id="Shape"></path>
                    <path d="M259.858106,47.0860465 C255.0994,47.0860465 251.151594,45.5023256 248.014688,42.3348837 C244.913349,39.0837209 243.369792,35.0790698 243.369792,30.3348837 C243.369792,25.5 244.920462,21.5023256 248.014688,18.3348837 C251.158707,15.1674419 255.106513,13.5837209 259.858106,13.5837209 C263.130162,13.5837209 265.989654,14.3860465 268.429469,15.9906977 C270.869284,17.5953488 272.70448,19.8069767 273.927945,22.6325581 L268.429469,24.8790698 C266.729423,20.944186 263.741894,18.9767442 259.466882,18.9767442 C256.721201,18.9767442 254.338291,20.0651163 252.332379,22.2488372 C250.369145,24.4325581 249.387529,27.1255814 249.387529,30.3348837 C249.387529,33.544186 250.369145,36.2372093 252.332379,38.4209302 C254.338291,40.6046512 256.714088,41.6930233 259.466882,41.6930233 C263.869931,41.6930233 266.97127,39.7255814 268.756674,35.7906977 L274.12,38.0372093 C272.939215,40.8627907 271.096905,43.0744186 268.593072,44.6790698 C266.089238,46.2837209 263.172841,47.0860465 259.858106,47.0860465 Z" id="Path"></path>
                    <path d="M292.258568,47.0860465 C287.549654,47.0860465 283.665866,45.5023256 280.607206,42.3348837 C277.555658,39.1674419 276.026328,35.1697674 276.026328,30.3348837 C276.026328,25.5418605 277.505866,21.5511628 280.479169,18.3627907 C283.445358,15.1744186 287.243788,13.5837209 291.867344,13.5837209 C296.618938,13.5837209 300.410254,15.0906977 303.219954,18.1116279 C306.036767,21.1255814 307.43806,25.3534884 307.43806,30.7883721 L307.374042,31.4302326 L282.179215,31.4302326 C282.264573,34.5139535 283.310208,36.9906977 285.323233,38.8744186 C287.329145,40.7581395 289.726282,41.7 292.521755,41.7 C296.362864,41.7 299.371732,39.8162791 301.555473,36.0488372 L306.918799,38.6162791 C305.48194,41.2674419 303.483141,43.3465116 300.929515,44.8395349 C298.375889,46.3325581 295.487945,47.0860465 292.258568,47.0860465 Z M282.64157,26.5465116 L301.029099,26.5465116 C300.85127,24.3627907 299.947898,22.555814 298.311871,21.1255814 C296.675843,19.6953488 294.484988,18.9767442 291.732194,18.9767442 C289.463095,18.9767442 287.514088,19.6604651 285.87806,21.027907 C284.242032,22.4023256 283.160831,24.2372093 282.64157,26.5465116 Z" id="Shape"></path>
                </g>
                <g id="_x32_94x96">
                    <path d="M26.7145578,52.7566667 C12.1970068,52.7566667 0,40.9133333 0,26.3783333 C0,11.8433333 12.1970068,0 26.7145578,0 C34.7444898,0 40.4538776,3.15208333 44.7553741,7.2675 L39.6827211,12.34625 C36.5980952,9.44916667 32.4239456,7.19666667 26.7145578,7.19666667 C16.1235374,7.19666667 7.83891156,15.7533333 7.83891156,26.37125 C7.83891156,36.9891667 16.1235374,45.53875 26.7145578,45.53875 C33.5842177,45.53875 37.5036735,42.77625 40.0081633,40.2616667 C42.0598639,38.2004167 43.4111565,35.2466667 43.927619,31.1879167 L26.5235374,31.1879167 L26.5235374,23.9983333 L50.917551,23.9983333 C51.1722449,25.2875 51.2995918,26.8316667 51.2995918,28.5033333 C51.2995918,33.9079167 49.8209524,40.6016667 45.0737415,45.3616667 C40.4538776,50.1783333 34.5463946,52.7566667 26.7145578,52.7566667 Z" id="Path" fill="#4285F4"></path>
                    <path d="M87.8410884,35.7708333 C87.8410884,45.5529167 80.2073469,52.7566667 70.8473469,52.7566667 C61.4873469,52.7566667 53.8465306,45.5458333 53.8465306,35.7708333 C53.8465306,25.925 61.4802721,18.785 70.8402721,18.785 C80.2002721,18.785 87.8410884,25.925 87.8410884,35.7708333 Z M80.3983673,35.7708333 C80.3983673,29.6579167 75.9695238,25.47875 70.8402721,25.47875 C65.7110204,25.47875 61.2821769,29.6579167 61.2821769,35.7708333 C61.2821769,41.82 65.7110204,46.0629167 70.8402721,46.0629167 C75.9765986,46.0629167 80.3983673,41.8129167 80.3983673,35.7708333 Z" id="Shape" fill="#EA4335"></path>
                    <path d="M124.835374,35.7708333 C124.835374,45.5529167 117.201633,52.7566667 107.841633,52.7566667 C98.4816327,52.7566667 90.8408163,45.5458333 90.8408163,35.7708333 C90.8408163,25.925 98.4745578,18.785 107.834558,18.785 C117.194558,18.785 124.835374,25.925 124.835374,35.7708333 Z M117.392653,35.7708333 C117.392653,29.6579167 112.96381,25.47875 107.834558,25.47875 C102.705306,25.47875 98.2764626,29.6579167 98.2764626,35.7708333 C98.2764626,41.82 102.705306,46.0629167 107.834558,46.0629167 C112.96381,46.0629167 117.392653,41.8129167 117.392653,35.7708333 Z" id="Shape" fill="#FBBC04"></path>
                    <path d="M160.223673,19.8120833 L160.223673,50.3058333 C160.223673,62.8504167 152.837551,68 144.107211,68 C135.886259,68 130.940952,62.4679167 129.080272,57.9629167 L135.567891,55.2641667 C136.721088,58.03375 139.55102,61.3133333 144.107211,61.3133333 C149.696327,61.3133333 153.162993,57.8425 153.162993,51.34 L153.162993,48.89625 L152.908299,48.89625 C151.238639,50.9575 148.026667,52.7566667 143.979864,52.7566667 C135.504218,52.7566667 127.736054,45.3616667 127.736054,35.8345833 C127.736054,26.2508333 135.504218,18.785 143.979864,18.785 C148.026667,18.785 151.238639,20.5841667 152.908299,22.5816667 L153.162993,22.5816667 L153.162993,19.8120833 L160.223673,19.8120833 Z M153.672381,35.8345833 C153.672381,29.8491667 149.689252,25.47875 144.616599,25.47875 C139.480272,25.47875 135.178776,29.85625 135.178776,35.8345833 C135.178776,41.75625 139.480272,46.0629167 144.616599,46.0629167 C149.689252,46.0629167 153.672381,41.7491667 153.672381,35.8345833 Z" id="Shape" fill="#4285F4"></path>
                    <polygon id="Path" fill="#34A853" points="173.029116 1.79916667 173.029116 51.7225 165.57932 51.7225 165.57932 1.79916667"></polygon>
                    <path d="M201.901497,41.3666667 L207.681633,45.2270833 C205.820952,47.9966667 201.321361,52.7566667 193.553197,52.7566667 C183.924354,52.7566667 176.729252,45.2908333 176.729252,35.7708333 C176.729252,25.67 183.988027,18.785 192.718367,18.785 C201.512381,18.785 205.813878,25.7975 207.228844,29.5941667 L208,31.5208333 L185.332245,40.9133333 C187.065578,44.3204167 189.761088,46.0629167 193.553197,46.0629167 C197.338231,46.0629167 199.977143,44.2 201.901497,41.3666667 Z M184.115374,35.25375 L199.26966,28.9495833 C198.43483,26.8245833 195.93034,25.3441667 192.980136,25.3441667 C189.188027,25.3441667 183.924354,28.6945833 184.115374,35.25375 Z" id="Shape" fill="#EA4335"></path>
                </g>
            </g>
        </g>
    </g>
</svg>